<mxfile modified="2023-05-03T15:27:13.949Z" host="app.diagrams.net" agent="Mozilla/5.0 (Windows NT 10.0; Win64; x64) AppleWebKit/537.36 (KHTML, like Gecko) Chrome/112.0.0.0 Safari/537.36" etag="fverMv12qnx7Te1e1FmI" version="21.2.7" type="github">
  <diagram id="WI9T0HZ2pTsCkuznbFz-" name="Page-1">
    <mxGraphModel dx="1434" dy="1957" grid="1" gridSize="10" guides="1" tooltips="1" connect="1" arrows="1" fold="1" page="1" pageScale="1" pageWidth="827" pageHeight="1169" math="0" shadow="0">
      <root>
        <mxCell id="0" />
        <mxCell id="1" parent="0" />
        <mxCell id="yIlqXNv4PA9Dnh1hxRCn-52" value="" style="rounded=0;whiteSpace=wrap;html=1;fillColor=#f5f5f5;strokeColor=none;fontColor=#333333;" parent="1" vertex="1">
          <mxGeometry x="130" y="-1146" width="920" height="586" as="geometry" />
        </mxCell>
        <mxCell id="yIlqXNv4PA9Dnh1hxRCn-64" value="9" style="ellipse;whiteSpace=wrap;html=1;aspect=fixed;fillColor=#4D9900;strokeColor=none;labelBackgroundColor=none;" parent="1" vertex="1">
          <mxGeometry x="650" y="-541.5" width="23" height="23" as="geometry" />
        </mxCell>
        <mxCell id="yIlqXNv4PA9Dnh1hxRCn-65" value="1" style="ellipse;whiteSpace=wrap;html=1;aspect=fixed;fillColor=#4D9900;strokeColor=none;labelBackgroundColor=none;" parent="1" vertex="1">
          <mxGeometry x="608.5" y="-1169" width="23" height="23" as="geometry" />
        </mxCell>
        <mxCell id="yIlqXNv4PA9Dnh1hxRCn-71" value="6" style="ellipse;whiteSpace=wrap;html=1;aspect=fixed;fillColor=#4D9900;strokeColor=none;labelBackgroundColor=none;" parent="1" vertex="1">
          <mxGeometry x="550.63" y="-696" width="23" height="23" as="geometry" />
        </mxCell>
        <mxCell id="yIlqXNv4PA9Dnh1hxRCn-74" value="" style="rounded=0;whiteSpace=wrap;html=1;fillColor=#EAEDED;fontSize=22;fontColor=#FFFFFF;strokeColor=none;labelBackgroundColor=none;" parent="1" vertex="1">
          <mxGeometry x="941.5" y="-1160" width="539" height="680" as="geometry" />
        </mxCell>
        <mxCell id="yIlqXNv4PA9Dnh1hxRCn-75" value="Wirtualna sieć WAN w architekturze HUB - SPOKE do centralnego zarządzania oraz połączenia między sieciami dla utworzonych zasobów&amp;nbsp;" style="text;html=1;align=left;verticalAlign=top;spacingTop=-4;fontSize=14;labelBackgroundColor=none;whiteSpace=wrap;" parent="1" vertex="1">
          <mxGeometry x="1011.5" y="-1134" width="449" height="72" as="geometry" />
        </mxCell>
        <mxCell id="yIlqXNv4PA9Dnh1hxRCn-82" value="1" style="ellipse;whiteSpace=wrap;html=1;aspect=fixed;fillColor=#4D9900;strokeColor=none;labelBackgroundColor=none;" parent="1" vertex="1">
          <mxGeometry x="961.5" y="-1127.5" width="23" height="23" as="geometry" />
        </mxCell>
        <mxCell id="yIlqXNv4PA9Dnh1hxRCn-95" value="Wirtualna sieć numer jeden z pulą adresów 10.0.0.0/16 do której należy podsieć &quot;&lt;b&gt;Subnet-App-01&lt;/b&gt;&quot;" style="text;html=1;align=left;verticalAlign=top;spacingTop=-4;fontSize=14;labelBackgroundColor=none;whiteSpace=wrap;" parent="1" vertex="1">
          <mxGeometry x="1011.5" y="-1057" width="449" height="72" as="geometry" />
        </mxCell>
        <mxCell id="yIlqXNv4PA9Dnh1hxRCn-96" value="2" style="ellipse;whiteSpace=wrap;html=1;aspect=fixed;fillColor=#4D9900;strokeColor=none;labelBackgroundColor=none;" parent="1" vertex="1">
          <mxGeometry x="961.5" y="-1057" width="23" height="23" as="geometry" />
        </mxCell>
        <mxCell id="yIlqXNv4PA9Dnh1hxRCn-97" value="&lt;span&gt;Wirtualna&amp;nbsp;&lt;/span&gt;sieć numer dwa z pulą adresów 10.1.0.0/16 do której należy podsieć &quot;&lt;b&gt;Subnet-App-02&lt;/b&gt;&quot;&amp;nbsp;&amp;nbsp;" style="text;html=1;align=left;verticalAlign=top;spacingTop=-4;fontSize=14;labelBackgroundColor=none;whiteSpace=wrap;" parent="1" vertex="1">
          <mxGeometry x="1011.5" y="-991.5" width="449" height="72" as="geometry" />
        </mxCell>
        <mxCell id="yIlqXNv4PA9Dnh1hxRCn-98" value="3" style="ellipse;whiteSpace=wrap;html=1;aspect=fixed;fillColor=#4D9900;strokeColor=none;labelBackgroundColor=none;" parent="1" vertex="1">
          <mxGeometry x="961.5" y="-985" width="23" height="23" as="geometry" />
        </mxCell>
        <mxCell id="yIlqXNv4PA9Dnh1hxRCn-99" value="Maszyna wirtualna / Scale set z przypisanym prywatnym adresem IP - 10.0.1.4 - na potrzeby testów do nowej aplikacji, wdrożona do podsieci &quot;&lt;b&gt;Subnet-App-01&quot;&lt;/b&gt;" style="text;html=1;align=left;verticalAlign=top;spacingTop=-4;fontSize=14;labelBackgroundColor=none;whiteSpace=wrap;" parent="1" vertex="1">
          <mxGeometry x="1011.5" y="-921.5" width="449" height="72" as="geometry" />
        </mxCell>
        <mxCell id="yIlqXNv4PA9Dnh1hxRCn-100" value="4" style="ellipse;whiteSpace=wrap;html=1;aspect=fixed;fillColor=#4D9900;strokeColor=none;labelBackgroundColor=none;" parent="1" vertex="1">
          <mxGeometry x="961.5" y="-915" width="23" height="23" as="geometry" />
        </mxCell>
        <mxCell id="yIlqXNv4PA9Dnh1hxRCn-101" value="Druga maszyna wirtualna / Scale set z przypisanym prywatnym adresem IP - 10.1.1.4 - na potrzeby testów do nowej aplikacji, wdrożona do podsieci &quot;&lt;b style=&quot;border-color: var(--border-color);&quot;&gt;Subnet-App-02&quot; - &lt;/b&gt;&lt;span style=&quot;border-color: var(--border-color);&quot;&gt;dostęp do VM`ki jedynie poprzez RDP z klienta &quot;&lt;b&gt;VM-SUB2-APP-01&quot;&lt;/b&gt;&lt;/span&gt;" style="text;html=1;align=left;verticalAlign=top;spacingTop=-4;fontSize=14;labelBackgroundColor=none;whiteSpace=wrap;" parent="1" vertex="1">
          <mxGeometry x="1011.5" y="-851.5" width="449" height="72" as="geometry" />
        </mxCell>
        <mxCell id="yIlqXNv4PA9Dnh1hxRCn-102" value="5" style="ellipse;whiteSpace=wrap;html=1;aspect=fixed;fillColor=#4D9900;strokeColor=none;labelBackgroundColor=none;" parent="1" vertex="1">
          <mxGeometry x="961.5" y="-845" width="23" height="23" as="geometry" />
        </mxCell>
        <mxCell id="yIlqXNv4PA9Dnh1hxRCn-103" value="Wirtualna sieć do zarządzania ruchem oraz łącznością zasobów umożliwiająca również nawiązanie połączenia z lokalnej sieci ( on premises ) do zasobów azurowych" style="text;html=1;align=left;verticalAlign=top;spacingTop=-4;fontSize=14;labelBackgroundColor=none;whiteSpace=wrap;" parent="1" vertex="1">
          <mxGeometry x="1011.5" y="-781.5" width="449" height="72" as="geometry" />
        </mxCell>
        <mxCell id="yIlqXNv4PA9Dnh1hxRCn-104" value="6" style="ellipse;whiteSpace=wrap;html=1;aspect=fixed;fillColor=#4D9900;strokeColor=none;labelBackgroundColor=none;" parent="1" vertex="1">
          <mxGeometry x="961.5" y="-775" width="23" height="23" as="geometry" />
        </mxCell>
        <mxCell id="yIlqXNv4PA9Dnh1hxRCn-105" value="&lt;span&gt;Centralny Firewall do kontroli ruchu sieciowego dla prezentowanej topologii&lt;/span&gt;" style="text;html=1;align=left;verticalAlign=top;spacingTop=-4;fontSize=14;labelBackgroundColor=none;whiteSpace=wrap;" parent="1" vertex="1">
          <mxGeometry x="1011.5" y="-711.5" width="449" height="72" as="geometry" />
        </mxCell>
        <mxCell id="yIlqXNv4PA9Dnh1hxRCn-106" value="7" style="ellipse;whiteSpace=wrap;html=1;aspect=fixed;fillColor=#4D9900;strokeColor=none;labelBackgroundColor=none;" parent="1" vertex="1">
          <mxGeometry x="961.5" y="-705" width="23" height="23" as="geometry" />
        </mxCell>
        <mxCell id="yIlqXNv4PA9Dnh1hxRCn-107" value="Firewall Manager do zarządzania politykami ruchu sieciowego oraz zezwoleniem ruchu z &quot;&lt;b&gt;CO-WorkerPC&quot; &lt;/b&gt;do maszyny wirtualnej bezpośrednio na Azure" style="text;html=1;align=left;verticalAlign=top;spacingTop=-4;fontSize=14;labelBackgroundColor=none;whiteSpace=wrap;" parent="1" vertex="1">
          <mxGeometry x="1011.5" y="-641.5" width="449" height="72" as="geometry" />
        </mxCell>
        <mxCell id="yIlqXNv4PA9Dnh1hxRCn-108" value="8" style="ellipse;whiteSpace=wrap;html=1;aspect=fixed;fillColor=#4D9900;strokeColor=none;labelBackgroundColor=none;" parent="1" vertex="1">
          <mxGeometry x="961.5" y="-635" width="23" height="23" as="geometry" />
        </mxCell>
        <mxCell id="yIlqXNv4PA9Dnh1hxRCn-109" value="&lt;span&gt;Komputer w sieci on-premise pracownika firmy TwiceX&lt;/span&gt;" style="text;html=1;align=left;verticalAlign=top;spacingTop=-4;fontSize=14;labelBackgroundColor=none;whiteSpace=wrap;" parent="1" vertex="1">
          <mxGeometry x="1011.5" y="-571.5" width="449" height="72" as="geometry" />
        </mxCell>
        <mxCell id="yIlqXNv4PA9Dnh1hxRCn-110" value="9" style="ellipse;whiteSpace=wrap;html=1;aspect=fixed;fillColor=#4D9900;strokeColor=none;labelBackgroundColor=none;" parent="1" vertex="1">
          <mxGeometry x="961.5" y="-565" width="23" height="23" as="geometry" />
        </mxCell>
        <mxCell id="yIlqXNv4PA9Dnh1hxRCn-113" value="&lt;span&gt;Lorem ipsum dolor sit amet, consectetur adipiscing elit, sed do eiusmod tempor incididunt ut labore et dolore magna aliqua. Ut enim ad minim veniam, quis nostrud exercitation ullamco laboris nisi ut aliquip ex ea commodo consequat.&lt;/span&gt;" style="text;html=1;align=left;verticalAlign=top;spacingTop=-4;fontSize=14;labelBackgroundColor=none;whiteSpace=wrap;" parent="1" vertex="1">
          <mxGeometry x="1031.5" y="910" width="449" height="72" as="geometry" />
        </mxCell>
        <mxCell id="4vLhZam7epiGqQE4X6Kc-4" value="" style="image;aspect=fixed;html=1;points=[];align=center;fontSize=12;image=img/lib/azure2/networking/Virtual_WANs.svg;" parent="1" vertex="1">
          <mxGeometry x="552.5" y="-1166" width="65" height="64" as="geometry" />
        </mxCell>
        <mxCell id="4vLhZam7epiGqQE4X6Kc-6" value="" style="rounded=0;whiteSpace=wrap;html=1;" parent="1" vertex="1">
          <mxGeometry x="248.5" y="-826" width="210" height="181.5" as="geometry" />
        </mxCell>
        <mxCell id="4vLhZam7epiGqQE4X6Kc-8" value="" style="image;aspect=fixed;html=1;points=[];align=center;fontSize=12;image=img/lib/azure2/compute/Virtual_Machine.svg;" parent="1" vertex="1">
          <mxGeometry x="325.55" y="-766" width="53.9" height="50" as="geometry" />
        </mxCell>
        <mxCell id="4vLhZam7epiGqQE4X6Kc-11" value="" style="rounded=0;whiteSpace=wrap;html=1;" parent="1" vertex="1">
          <mxGeometry x="248.5" y="-1096" width="210" height="174" as="geometry" />
        </mxCell>
        <mxCell id="4vLhZam7epiGqQE4X6Kc-12" value="" style="image;aspect=fixed;html=1;points=[];align=center;fontSize=12;image=img/lib/azure2/compute/Virtual_Machine.svg;" parent="1" vertex="1">
          <mxGeometry x="326.54999999999995" y="-1036" width="53.91" height="50" as="geometry" />
        </mxCell>
        <mxCell id="4vLhZam7epiGqQE4X6Kc-13" value="2" style="ellipse;whiteSpace=wrap;html=1;aspect=fixed;fillColor=#4D9900;strokeColor=none;labelBackgroundColor=none;" parent="1" vertex="1">
          <mxGeometry x="196.25" y="-929.25" width="22.5" height="22.5" as="geometry" />
        </mxCell>
        <mxCell id="4vLhZam7epiGqQE4X6Kc-14" value="3" style="ellipse;whiteSpace=wrap;html=1;aspect=fixed;fillColor=#4D9900;strokeColor=none;labelBackgroundColor=none;" parent="1" vertex="1">
          <mxGeometry x="196" y="-652.5" width="23" height="23" as="geometry" />
        </mxCell>
        <mxCell id="4vLhZam7epiGqQE4X6Kc-17" value="" style="image;aspect=fixed;html=1;points=[];align=center;fontSize=12;image=img/lib/azure2/networking/Virtual_Networks.svg;" parent="1" vertex="1">
          <mxGeometry x="221.5" y="-656" width="50.25" height="30" as="geometry" />
        </mxCell>
        <mxCell id="4vLhZam7epiGqQE4X6Kc-18" value="" style="image;aspect=fixed;html=1;points=[];align=center;fontSize=12;image=img/lib/azure2/networking/Virtual_Networks.svg;" parent="1" vertex="1">
          <mxGeometry x="221.5" y="-933" width="50.25" height="30" as="geometry" />
        </mxCell>
        <mxCell id="4vLhZam7epiGqQE4X6Kc-21" value="&lt;h1 style=&quot;font-size: 12px;&quot;&gt;Wirtual WAN&amp;nbsp;&lt;/h1&gt;&lt;div&gt;&amp;nbsp; &amp;nbsp; vWan-01&lt;/div&gt;" style="text;html=1;strokeColor=none;fillColor=none;spacing=5;spacingTop=-20;whiteSpace=wrap;overflow=hidden;rounded=0;fontSize=11;" parent="1" vertex="1">
          <mxGeometry x="548.5" y="-1093" width="190" height="120" as="geometry" />
        </mxCell>
        <mxCell id="4vLhZam7epiGqQE4X6Kc-22" value="&lt;h1 style=&quot;font-size: 14px;&quot;&gt;&lt;font style=&quot;font-size: 14px;&quot;&gt;Subnet-App-01&lt;/font&gt;&lt;/h1&gt;&lt;div style=&quot;font-size: 14px;&quot;&gt;&lt;font style=&quot;font-size: 14px;&quot;&gt;10.0.1.0/24&lt;/font&gt;&lt;/div&gt;" style="text;html=1;fillColor=#bac8d3;spacing=5;spacingTop=-20;whiteSpace=wrap;overflow=hidden;rounded=0;fontSize=11;strokeColor=#23445d;align=center;" parent="1" vertex="1">
          <mxGeometry x="248.5" y="-1096" width="210" height="50" as="geometry" />
        </mxCell>
        <mxCell id="4vLhZam7epiGqQE4X6Kc-23" value="&lt;h1 style=&quot;font-size: 14px;&quot;&gt;&lt;font style=&quot;font-size: 14px;&quot;&gt;Subnet-App-02&lt;/font&gt;&lt;/h1&gt;&lt;div style=&quot;font-size: 14px;&quot;&gt;&lt;font style=&quot;font-size: 14px;&quot;&gt;10.1.1.0/24&lt;/font&gt;&lt;/div&gt;" style="text;html=1;fillColor=#bac8d3;spacing=5;spacingTop=-20;whiteSpace=wrap;overflow=hidden;rounded=0;fontSize=11;strokeColor=#23445d;align=center;" parent="1" vertex="1">
          <mxGeometry x="247.5" y="-826" width="210" height="50" as="geometry" />
        </mxCell>
        <mxCell id="4vLhZam7epiGqQE4X6Kc-26" value="&lt;h1 style=&quot;font-size: 11px;&quot;&gt;VM-SUB2-APP-01&lt;/h1&gt;&lt;div&gt;10.0.1.4&lt;/div&gt;" style="text;html=1;strokeColor=none;fillColor=none;spacing=5;spacingTop=-20;whiteSpace=wrap;overflow=hidden;rounded=0;fontSize=11;align=center;" parent="1" vertex="1">
          <mxGeometry x="258.5" y="-965" width="190" height="103" as="geometry" />
        </mxCell>
        <mxCell id="4vLhZam7epiGqQE4X6Kc-27" value="&lt;h1 style=&quot;font-size: 11px;&quot;&gt;VM-SUB2-APP-02&lt;/h1&gt;&lt;div&gt;10.1.1.4&lt;/div&gt;" style="text;html=1;strokeColor=none;fillColor=none;spacing=5;spacingTop=-20;whiteSpace=wrap;overflow=hidden;rounded=0;fontSize=11;align=center;" parent="1" vertex="1">
          <mxGeometry x="252.5" y="-686" width="190" height="103" as="geometry" />
        </mxCell>
        <mxCell id="4vLhZam7epiGqQE4X6Kc-28" value="&lt;h1 style=&quot;font-size: 11px;&quot;&gt;AZ-Vnet-01&lt;/h1&gt;&lt;div&gt;10.0.0.0/16&lt;/div&gt;" style="text;html=1;strokeColor=none;fillColor=none;spacing=5;spacingTop=-20;whiteSpace=wrap;overflow=hidden;rounded=0;fontSize=11;align=center;" parent="1" vertex="1">
          <mxGeometry x="153.5" y="-896" width="190" height="36" as="geometry" />
        </mxCell>
        <mxCell id="4vLhZam7epiGqQE4X6Kc-29" value="&lt;h1 style=&quot;font-size: 11px;&quot;&gt;AZ-Vnet-02&lt;/h1&gt;&lt;div&gt;10.1.0.0/16&lt;/div&gt;" style="text;html=1;strokeColor=none;fillColor=none;spacing=5;spacingTop=-20;whiteSpace=wrap;overflow=hidden;rounded=0;fontSize=11;align=center;" parent="1" vertex="1">
          <mxGeometry x="153.5" y="-620" width="190" height="40" as="geometry" />
        </mxCell>
        <mxCell id="4vLhZam7epiGqQE4X6Kc-30" value="" style="rounded=0;whiteSpace=wrap;html=1;" parent="1" vertex="1">
          <mxGeometry x="558.5" y="-976" width="300" height="220" as="geometry" />
        </mxCell>
        <mxCell id="4vLhZam7epiGqQE4X6Kc-32" value="&lt;b&gt;Peering&lt;/b&gt;" style="text;html=1;strokeColor=none;fillColor=none;align=center;verticalAlign=middle;whiteSpace=wrap;rounded=0;" parent="1" vertex="1">
          <mxGeometry x="481.5" y="-976" width="60" height="30" as="geometry" />
        </mxCell>
        <mxCell id="4vLhZam7epiGqQE4X6Kc-33" value="&lt;b&gt;Peering&lt;/b&gt;" style="text;html=1;strokeColor=none;fillColor=none;align=center;verticalAlign=middle;whiteSpace=wrap;rounded=0;" parent="1" vertex="1">
          <mxGeometry x="481.5" y="-836" width="60" height="30" as="geometry" />
        </mxCell>
        <mxCell id="4vLhZam7epiGqQE4X6Kc-36" value="" style="shape=link;html=1;rounded=0;" parent="1" edge="1">
          <mxGeometry width="100" relative="1" as="geometry">
            <mxPoint x="457.5" y="-946" as="sourcePoint" />
            <mxPoint x="557.5" y="-946" as="targetPoint" />
          </mxGeometry>
        </mxCell>
        <mxCell id="4vLhZam7epiGqQE4X6Kc-37" value="" style="shape=link;html=1;rounded=0;" parent="1" edge="1">
          <mxGeometry width="100" relative="1" as="geometry">
            <mxPoint x="458.5" y="-801.4300000000001" as="sourcePoint" />
            <mxPoint x="558.5" y="-801.4300000000001" as="targetPoint" />
          </mxGeometry>
        </mxCell>
        <mxCell id="4vLhZam7epiGqQE4X6Kc-38" value="" style="image;aspect=fixed;html=1;points=[];align=center;fontSize=12;image=img/lib/azure2/networking/Virtual_Networks.svg;" parent="1" vertex="1">
          <mxGeometry x="537" y="-766" width="50.25" height="30" as="geometry" />
        </mxCell>
        <mxCell id="4vLhZam7epiGqQE4X6Kc-39" value="&lt;h1 style=&quot;font-size: 11px;&quot;&gt;VHub network&lt;/h1&gt;&lt;div&gt;10.2.0.0/16&lt;/div&gt;" style="text;html=1;strokeColor=none;fillColor=none;spacing=5;spacingTop=-20;whiteSpace=wrap;overflow=hidden;rounded=0;fontSize=11;align=center;" parent="1" vertex="1">
          <mxGeometry x="467.13" y="-729" width="190" height="103" as="geometry" />
        </mxCell>
        <mxCell id="4vLhZam7epiGqQE4X6Kc-40" value="&lt;h1 style=&quot;font-size: 11px;&quot;&gt;Secured Virtual Hub Network&lt;/h1&gt;" style="text;html=1;strokeColor=none;fillColor=none;spacing=5;spacingTop=-20;whiteSpace=wrap;overflow=hidden;rounded=0;fontSize=11;align=center;" parent="1" vertex="1">
          <mxGeometry x="618.5" y="-802.5" width="190" height="16.5" as="geometry" />
        </mxCell>
        <mxCell id="4vLhZam7epiGqQE4X6Kc-42" value="" style="image;aspect=fixed;html=1;points=[];align=center;fontSize=12;image=img/lib/azure2/networking/Azure_Firewall_Manager.svg;" parent="1" vertex="1">
          <mxGeometry x="754.53" y="-903" width="70" height="60" as="geometry" />
        </mxCell>
        <mxCell id="4vLhZam7epiGqQE4X6Kc-43" value="" style="image;aspect=fixed;html=1;points=[];align=center;fontSize=12;image=img/lib/azure2/networking/Firewalls.svg;" parent="1" vertex="1">
          <mxGeometry x="657.5" y="-966" width="97.03" height="82" as="geometry" />
        </mxCell>
        <mxCell id="4vLhZam7epiGqQE4X6Kc-44" value="&lt;b&gt;Azure Firewall HUB&lt;/b&gt;" style="text;html=1;strokeColor=none;fillColor=none;align=center;verticalAlign=middle;whiteSpace=wrap;rounded=0;" parent="1" vertex="1">
          <mxGeometry x="676.01" y="-881" width="60" height="30" as="geometry" />
        </mxCell>
        <mxCell id="4vLhZam7epiGqQE4X6Kc-45" value="&lt;b&gt;Firewall Manager&lt;/b&gt;" style="text;html=1;strokeColor=none;fillColor=none;align=center;verticalAlign=middle;whiteSpace=wrap;rounded=0;" parent="1" vertex="1">
          <mxGeometry x="754.53" y="-933" width="60" height="30" as="geometry" />
        </mxCell>
        <mxCell id="4vLhZam7epiGqQE4X6Kc-54" value="" style="endArrow=classic;html=1;rounded=0;entryX=0.533;entryY=1;entryDx=0;entryDy=0;entryPerimeter=0;" parent="1" target="4vLhZam7epiGqQE4X6Kc-30" edge="1">
          <mxGeometry width="50" height="50" relative="1" as="geometry">
            <mxPoint x="718.5" y="-566" as="sourcePoint" />
            <mxPoint x="768.5" y="-706" as="targetPoint" />
          </mxGeometry>
        </mxCell>
        <mxCell id="4vLhZam7epiGqQE4X6Kc-56" value="" style="shape=image;verticalLabelPosition=bottom;labelBackgroundColor=#ffffff;verticalAlign=top;aspect=fixed;imageAspect=0;image=data:image/svg+xml,PHN2ZyB4bWxuczpjYz0iaHR0cDovL2NyZWF0aXZlY29tbW9ucy5vcmcvbnMjIiB4bWxuczpkYz0iaHR0cDovL3B1cmwub3JnL2RjL2VsZW1lbnRzLzEuMS8iIHhtbG5zOmlua3NjYXBlPSJodHRwOi8vd3d3Lmlua3NjYXBlLm9yZy9uYW1lc3BhY2VzL2lua3NjYXBlIiB4bWxuczpyZGY9Imh0dHA6Ly93d3cudzMub3JnLzE5OTkvMDIvMjItcmRmLXN5bnRheC1ucyMiIHhtbG5zOnNvZGlwb2RpPSJodHRwOi8vc29kaXBvZGkuc291cmNlZm9yZ2UubmV0L0RURC9zb2RpcG9kaS0wLmR0ZCIgeG1sbnM6c3ZnPSJodHRwOi8vd3d3LnczLm9yZy8yMDAwL3N2ZyIgeG1sbnM9Imh0dHA6Ly93d3cudzMub3JnLzIwMDAvc3ZnIiB4bWxuczp4bGluaz0iaHR0cDovL3d3dy53My5vcmcvMTk5OS94bGluayIgdmVyc2lvbj0iMS4xIiBpZD0ic3ZnMTQxNTQ5IiBpbmtzY2FwZTp2ZXJzaW9uPSIwLjkyLjMgKDI0MDU1NDYsIDIwMTgtMDMtMTEpIiBzb2RpcG9kaTpkb2NuYW1lPSJjb21wdXRlci5zdmciIHg9IjBweCIgeT0iMHB4IiB2aWV3Qm94PSIwIDAgODQuODggNjAuMzkiIHN0eWxlPSJlbmFibGUtYmFja2dyb3VuZDpuZXcgMCAwIDg0Ljg4IDYwLjM5OyIgeG1sOnNwYWNlPSJwcmVzZXJ2ZSI+JiN4YTs8c29kaXBvZGk6bmFtZWR2aWV3IGJvcmRlcmNvbG9yPSIjNjY2NjY2IiBib3JkZXJvcGFjaXR5PSIxIiBmaXQtbWFyZ2luLWJvdHRvbT0iMCIgZml0LW1hcmdpbi1sZWZ0PSIwIiBmaXQtbWFyZ2luLXJpZ2h0PSIwIiBmaXQtbWFyZ2luLXRvcD0iMCIgZ3JpZHRvbGVyYW5jZT0iMTAiIGd1aWRldG9sZXJhbmNlPSIxMCIgaWQ9Im5hbWVkdmlldzE0MTU1MSIgaW5rc2NhcGU6Y3VycmVudC1sYXllcj0ic3ZnMTQxNTQ5IiBpbmtzY2FwZTpjeD0iNTYuNTg3MjgxIiBpbmtzY2FwZTpjeT0iNDAuMjYzMDc4IiBpbmtzY2FwZTpwYWdlb3BhY2l0eT0iMCIgaW5rc2NhcGU6cGFnZXNoYWRvdz0iMiIgaW5rc2NhcGU6d2luZG93LWhlaWdodD0iMTAxNyIgaW5rc2NhcGU6d2luZG93LW1heGltaXplZD0iMSIgaW5rc2NhcGU6d2luZG93LXdpZHRoPSIxOTIwIiBpbmtzY2FwZTp3aW5kb3cteD0iLTgiIGlua3NjYXBlOndpbmRvdy15PSItOCIgaW5rc2NhcGU6em9vbT0iMTAuNTA3MzE4IiBvYmplY3R0b2xlcmFuY2U9IjEwIiBwYWdlY29sb3I9IiNmZmZmZmYiIHNob3dncmlkPSJmYWxzZSI+JiN4YTsJPC9zb2RpcG9kaTpuYW1lZHZpZXc+JiN4YTs8ZyBpZD0iZzE0MTU0NyIgdHJhbnNmb3JtPSJ0cmFuc2xhdGUoLTAuNzQ5MDk5NjYsLTAuNzQ1Mzk5NjYpIj4mI3hhOwk8dGl0bGUgaWQ9InRpdGxlMTQxNTA3Ij5QYWdlLTE8L3RpdGxlPiYjeGE7CTxnIGlkPSJncm91cDkwNjktMSIgdHJhbnNmb3JtPSJ0cmFuc2xhdGUoMS41LC0wLjc1KSI+JiN4YTsJCTx0aXRsZSBpZD0idGl0bGUxNDE1MDkiPkNvbXB1dGVyPC90aXRsZT4mI3hhOwkJPGcgaWQ9InNoYXBlOTA3MC0yIiB0cmFuc2Zvcm09InRyYW5zbGF0ZSgxMC40OTE0KSI+JiN4YTsJCQk8dGl0bGUgaWQ9InRpdGxlMTQxNTExIj5wb2x5Z29uMTU2NzwvdGl0bGU+JiN4YTsJCQk8cGF0aCBpZD0icGF0aDE0MTUxMyIgaW5rc2NhcGU6Y29ubmVjdG9yLWN1cnZhdHVyZT0iMCIgc3R5bGU9ImZpbGw6IzU1NkE4QTsiIGQ9Ik00LjA0LDU3LjQ3aDU2Ljc4bDMuNzksNC40MkgwTDQuMDQsNTcuNDd6Ii8+JiN4YTsJCTwvZz4mI3hhOwkJPGcgaWQ9InNoYXBlOTA3MS00IiB0cmFuc2Zvcm09InRyYW5zbGF0ZSgxNi41NjU0LC0xLjEwNDM2KSI+JiN4YTsJCQk8dGl0bGUgaWQ9InRpdGxlMTQxNTE2Ij5wb2x5Z29uMTU2OTwvdGl0bGU+JiN4YTsJCQk8cGF0aCBpZD0icGF0aDE0MTUxOCIgaW5rc2NhcGU6Y29ubmVjdG9yLWN1cnZhdHVyZT0iMCIgc3R5bGU9ImZpbGw6I0FEQkRDQTsiIGQ9Ik0xLjg0LDU5LjY4aDQ4LjgzbDEuNzksMi4yMUgwTDEuODQsNTkuNjh6Ii8+JiN4YTsJCTwvZz4mI3hhOwkJPGcgaWQ9InNoYXBlOTA3Mi02IiB0cmFuc2Zvcm09InRyYW5zbGF0ZSgyMy4xOTE1LC03LjczMDUyKSI+JiN4YTsJCQk8dGl0bGUgaWQ9InRpdGxlMTQxNTIxIj5wb2x5Z29uMTU3MTwvdGl0bGU+JiN4YTsJCQk8cGF0aCBpZD0icGF0aDE0MTUyMyIgaW5rc2NhcGU6Y29ubmVjdG9yLWN1cnZhdHVyZT0iMCIgc3R5bGU9ImZpbGw6IzU1NkE4QTsiIGQ9Ik0wLDYxLjg5aDM1LjM0bC0zLjMxLTMuMzJIMy4zMUwwLDYxLjg5eiIvPiYjeGE7CQk8L2c+JiN4YTsJCTxnIGlkPSJzaGFwZTkwNzMtOCIgdHJhbnNmb3JtPSJ0cmFuc2xhdGUoMzkuODk1LC04LjE0NDY1KSI+JiN4YTsJCQk8dGl0bGUgaWQ9InRpdGxlMTQxNTI2Ij5wb2x5Z29uMTU3MzwvdGl0bGU+JiN4YTsJCQk8cGF0aCBpZD0icGF0aDE0MTUyOCIgaW5rc2NhcGU6Y29ubmVjdG9yLWN1cnZhdHVyZT0iMCIgc3R5bGU9ImZpbGw6IzU1NkE4QTsiIGQ9Ik0wLjc3LDU0LjE1aDIuMzJsMC43OCw3Ljc0SDBMMC43Nyw1NC4xNXoiLz4mI3hhOwkJPC9nPiYjeGE7CQk8ZyBpZD0ic2hhcGU5MDc0LTEwIiB0cmFuc2Zvcm09InRyYW5zbGF0ZSgwLC0xNC45MDg5KSI+JiN4YTsJCQk8dGl0bGUgaWQ9InRpdGxlMTQxNTMxIj5yZWN0MTU3NTwvdGl0bGU+JiN4YTsJCQk8cGF0aCBpZD0icGF0aDE0MTUzMyIgaW5rc2NhcGU6Y29ubmVjdG9yLWN1cnZhdHVyZT0iMCIgc3R5bGU9ImZpbGw6I0ZGRkZGRjsiIGQ9Ik0wLDU5LjY4YzAsMS4yMiwwLjk5LDIuMjEsMi4yMSwyLjIxICAgICBjMCwwLDAsMCwwLDBoNzguOTZjMS4yMiwwLDIuMjEtMC45OSwyLjIxLTIuMjFjMCwwLDAsMCwwLDBWMTguODJjMC0xLjIyLTAuOTktMi4yMS0yLjIxLTIuMjFjMCwwLDAsMCwwLDBIMi4yMSAgICAgQzAuOTksMTYuNjEsMCwxNy42LDAsMTguODJjMCwwLDAsMCwwLDBWNTkuNjh6Ii8+JiN4YTsJCTwvZz4mI3hhOwkJPGcgaWQ9InNoYXBlOTA3NS0xMiIgdHJhbnNmb3JtPSJ0cmFuc2xhdGUoMCwtNTAuODAwNSkiPiYjeGE7CQkJPHRpdGxlIGlkPSJ0aXRsZTE0MTUzNiI+cGF0aDE1Nzc8L3RpdGxlPiYjeGE7CQkJPHBhdGggaWQ9InBhdGgxNDE1MzgiIGlua3NjYXBlOmNvbm5lY3Rvci1jdXJ2YXR1cmU9IjAiIHN0eWxlPSJmaWxsOiNFNUU1RTU7IiBkPSJNODMuMzgsNTUuMjZ2Ni42M0gwdi02LjYzICAgICBjMC0xLjIyLDAuOTktMi4yMSwyLjIxLTIuMjFjMCwwLDAsMCwwLDBoNzguOTZDODIuMzksNTMuMDUsODMuMzgsNTQuMDQsODMuMzgsNTUuMjZDODMuMzgsNTUuMjYsODMuMzgsNTUuMjYsODMuMzgsNTUuMjZ6Ii8+JiN4YTsJCTwvZz4mI3hhOwkJPGcgaWQ9InNoYXBlOTA3Ni0xNCIgdHJhbnNmb3JtPSJyb3RhdGUoMTgwLDQxLjY4OTU1LDMyLjA2NzcpIj4mI3hhOwkJCTx0aXRsZSBpZD0idGl0bGUxNDE1NDEiPnJlY3QxNTc5PC90aXRsZT4mI3hhOwkJCSYjeGE7CQkJCTxwYXRoIGlkPSJwYXRoMTQxNTQzIiBpbmtzY2FwZTpjb25uZWN0b3ItY3VydmF0dXJlPSIwIiBzdHlsZT0iZmlsbDpub25lO3N0cm9rZTojNTU2QThBO3N0cm9rZS13aWR0aDoxLjU7c3Ryb2tlLW1pdGVybGltaXQ6MzsiIGQ9IiAgICAgTTAsNTkuNjhjMCwxLjIyLDAuOTksMi4yMSwyLjIxLDIuMjFjMCwwLDAsMCwwLDBoNzguOTZjMS4yMiwwLDIuMjEtMC45OSwyLjIxLTIuMjFjMCwwLDAsMCwwLDBWMTguODIgICAgIGMwLTEuMjItMC45OS0yLjIxLTIuMjEtMi4yMWMwLDAsMCwwLDAsMEgyLjIxQzAuOTksMTYuNjEsMCwxNy42LDAsMTguODJjMCwwLDAsMCwwLDBWNTkuNjh6Ii8+JiN4YTsJCTwvZz4mI3hhOwk8L2c+JiN4YTs8L2c+JiN4YTs8L3N2Zz4=;" parent="1" vertex="1">
          <mxGeometry x="679.9999999999999" y="-560" width="85" height="60" as="geometry" />
        </mxCell>
        <mxCell id="4vLhZam7epiGqQE4X6Kc-58" value="&lt;b&gt;CO-Worker PC&lt;/b&gt;" style="text;html=1;strokeColor=none;fillColor=none;align=center;verticalAlign=middle;whiteSpace=wrap;rounded=0;" parent="1" vertex="1">
          <mxGeometry x="692.5" y="-490" width="60" height="30" as="geometry" />
        </mxCell>
        <mxCell id="4vLhZam7epiGqQE4X6Kc-60" value="7" style="ellipse;whiteSpace=wrap;html=1;aspect=fixed;fillColor=#4D9900;strokeColor=none;labelBackgroundColor=none;" parent="1" vertex="1">
          <mxGeometry x="650" y="-896" width="23" height="23" as="geometry" />
        </mxCell>
        <mxCell id="4vLhZam7epiGqQE4X6Kc-61" value="8" style="ellipse;whiteSpace=wrap;html=1;aspect=fixed;fillColor=#4D9900;strokeColor=none;labelBackgroundColor=none;" parent="1" vertex="1">
          <mxGeometry x="824.53" y="-896" width="23" height="23" as="geometry" />
        </mxCell>
        <mxCell id="4vLhZam7epiGqQE4X6Kc-63" value="4" style="ellipse;whiteSpace=wrap;html=1;aspect=fixed;fillColor=#4D9900;strokeColor=none;labelBackgroundColor=none;" parent="1" vertex="1">
          <mxGeometry x="370" y="-995.5" width="23" height="23" as="geometry" />
        </mxCell>
        <mxCell id="4vLhZam7epiGqQE4X6Kc-64" value="5" style="ellipse;whiteSpace=wrap;html=1;aspect=fixed;fillColor=#4D9900;strokeColor=none;labelBackgroundColor=none;" parent="1" vertex="1">
          <mxGeometry x="370" y="-728" width="23" height="23" as="geometry" />
        </mxCell>
      </root>
    </mxGraphModel>
  </diagram>
</mxfile>
